<svg width="14" height="17" viewBox="0 0 14 17" xmlns="http://www.w3.org/2000/svg"><title>Path</title><path d="M7.24 15.97a.383.383 0 0 1-.275-.114l-.008-.008-.009-.006c-1.001-.726-1.473-1.505-1.692-2.03l-.053-.128-.117.072a3.355 3.355 0 0 1-.381.209.378.378 0 0 1-.473-.146c-.39-.662-.591-1.54-.691-2.158l-.024-.149-.138.059a.371.371 0 0 1-.456-.123c-.89-1.265-.943-3.04-.896-3.987l.006-.132-.131.009c-.138.01-.235.011-.28.011a.38.38 0 0 1-.306-.138.34.34 0 0 1-.062-.305C1.8 4.998 2.957 3.579 4.598 2.802a6.68 6.68 0 0 1 2.176-.606l.106-.01v-.867c0-.192.158-.345.36-.349a.358.358 0 0 1 .362.349v.867l.105.01a6.681 6.681 0 0 1 2.177.606c1.64.777 2.797 2.197 3.344 4.104a.34.34 0 0 1-.062.305.37.37 0 0 1-.285.138c-.06 0-.162-.002-.301-.011l-.132-.009.007.132c.047.946-.006 2.722-.896 3.987a.38.38 0 0 1-.456.123l-.138-.059-.024.149c-.1.62-.301 1.496-.691 2.158a.37.37 0 0 1-.473.145 3.256 3.256 0 0 1-.382-.208l-.117-.072-.053.127c-.219.526-.692 1.306-1.701 2.04l-.01.007-.008.009a.378.378 0 0 1-.26.103h-.005z" stroke="#979797" fill="none"/></svg>