<svg width="220" height="149" viewBox="0 0 220 149" xmlns="http://www.w3.org/2000/svg" xmlns:xlink="http://www.w3.org/1999/xlink"><title>Group 4</title><defs><path id="a" d="M0.249647984 73L58.1633901 73 58.1633901 0.8102 0.249647984 0.8102z"/><path id="c" d="M0 0.2492L0 59.5612 16.4987 59.5612 16.4987 0.2492z"/><path id="e" d="M31.1561017 55.2921525L31.1561017 0.462745763 0.631754237 0.462745763 0.631754237 55.2921525z"/></defs><g transform="translate(0 -1)" fill="none" fill-rule="evenodd"><g transform="translate(64)"><g transform="translate(17 .19)"><mask id="b" fill="#fff"><use xlink:href="#a"/></mask><path d="M17.802 22.383l.197.057a1.766 1.766 0 0 1 .362.166l.155.102c.086.071.12.097.15.127l.096.102.171.217.178.25c1.333 1.796 5.438 5.937 6.908 7.38a30.871 30.871 0 0 0 2.877 2.133l.31.202.31-.202c.96-.626 1.936-1.35 2.903-2.154.087-.084 5.3-5.225 6.883-7.36l.201-.284.135-.174.077-.077.151-.136.141-.098a1.724 1.724 0 0 1 .366-.179l.196-.057a2.569 2.569 0 0 1 .42-.051l.145.004c.644 0 1.228.325 1.541.85l.053.09.083.064c1.857 1.463 3.86 2.64 5.793 3.405 1.22.432 2.515.768 3.87 1.004.197.024.294.042.388.067l1.118.192-.369-.936c-2.632-6.68-7.08-11.538-13.223-14.44-5.517-2.607-10.544-2.682-11.099-2.682h-.165c-.555 0-5.582.075-11.1 2.682-6.14 2.902-10.589 7.758-13.222 14.435L4.44 28l1.076-.165.26-.076-.099.041c.05-.012.137-.02.16-.022a23.8 23.8 0 0 0 3.986-1.024c2.817-1.115 5.04-2.817 5.865-3.497l.082-.067.052-.093c.246-.439.84-.745 1.445-.746l.363.006.172.026zm23.233 4.625c-1.228 1.43-3.216 3.567-5.11 5.277l-.288.26.138.362a31.204 31.204 0 0 0 4.917 8.593c.39.455 1.747 2.01 3.278 3.468a28.312 28.312 0 0 0 3.468 2.695l.53.347.286-.564c2.872-5.64 2.72-13.139 2.521-16.102l-.029-.427-.419-.09a17.065 17.065 0 0 1-3.467-1.109 34.132 34.132 0 0 1-5.077-2.81l-.418-.284-.33.384zm-24.406-.1a34.063 34.063 0 0 1-5.075 2.81 17.052 17.052 0 0 1-3.47 1.11l-.419.09-.029.427c-.197 2.964-.346 10.466 2.522 16.102l.288.565.53-.349a28.801 28.801 0 0 0 3.473-2.7 50.457 50.457 0 0 0 3.28-3.472 31.159 31.159 0 0 0 4.91-8.584l.136-.362-.287-.26c-1.892-1.707-3.88-3.845-5.11-5.277l-.33-.384-.419.284zm8.757 8.575a34.734 34.734 0 0 1-3.847 6.791l-.172.236.092.276c1.25 3.777 5.5 9.263 5.68 9.494.056.073.102.147.147.228l.028.052.04.044c.4.467.907.991 1.464 1.514l.388.365.388-.365a19.12 19.12 0 0 0 1.508-1.575l.061-.073.035-.089.072-.094c.455-.585 4.454-5.78 5.683-9.5l.091-.276-.17-.235a34.812 34.812 0 0 1-3.848-6.792l-.272-.636-.57.39c-.987.677-2.278 1.538-2.614 1.761a.658.658 0 0 1-.729 0 307.396 307.396 0 0 1-2.613-1.76l-.57-.39-.272.634zM18.228 46.16a43.124 43.124 0 0 1-2.08 1.988c-.375.327-.829.687-1.35 1.068l-.266.195.038.328c.231 1.992.816 5.821 2.14 9.082l.262.645.58-.389c1.49-1 3.697-2.75 5.755-5.408l.261-.337-.25-.345c-.99-1.355-2.418-3.43-3.612-5.617l-.937-1.758-.54.548zm20.48 1.206c-1.193 2.188-2.623 4.265-3.612 5.621l-.25.345.26.337a24.99 24.99 0 0 0 5.756 5.408l.58.39.261-.647c1.323-3.26 1.908-7.088 2.14-9.08l.037-.329-.266-.194a20.9 20.9 0 0 1-1.349-1.069 43.606 43.606 0 0 1-2.08-1.988l-.542-.548-.935 1.754zM25.51 56.51c-.975 1.183-1.937 2.193-2.86 3.004l-.287.251.124.36c.62 1.795 2.27 5.315 6.356 8.723l.363.303.363-.303c4.084-3.405 5.735-6.927 6.356-8.723l.125-.36-.287-.25c-.919-.808-1.882-1.819-2.86-3.005l-.364-.44-.438.366a68.081 68.081 0 0 1-2.488 1.952.678.678 0 0 1-.812 0 64.672 64.672 0 0 1-2.489-1.95l-.439-.369-.363.441zM29.206 73c-.296 0-.57-.059-.814-.177a1.706 1.706 0 0 1-.519-.37l-.036-.04-.043-.03c-4.833-3.494-7.108-7.242-8.165-9.772L19.373 62l-.565.348c-1.039.64-1.716.947-1.84 1.002a1.828 1.828 0 0 1-.742.156 1.785 1.785 0 0 1-1.54-.859c-1.885-3.184-2.855-7.405-3.337-10.385l-.115-.714-.666.282c-.234.1-.488.153-.733.153-.59 0-1.139-.279-1.468-.745-4.293-6.088-4.552-14.634-4.324-19.186l.031-.638-.636.044c-.664.045-1.13.053-1.347.053-.634-.01-1.135-.235-1.479-.666a1.633 1.633 0 0 1-.3-1.467c2.64-9.18 8.221-16.01 16.141-19.752a32.311 32.311 0 0 1 10.501-2.913l.512-.05V2.49c0-.923.761-1.66 1.732-1.679.972.018 1.75.756 1.75 1.68v4.172l.51.05c2.503.248 6.357.954 10.502 2.913 7.92 3.742 13.501 10.573 16.141 19.752a1.628 1.628 0 0 1-.3 1.467 1.79 1.79 0 0 1-1.374.664c-.292 0-.785-.007-1.454-.05l-.635-.044.031.637c.228 4.551-.03 13.096-4.323 19.186a1.793 1.793 0 0 1-1.468.745c-.253 0-.499-.05-.73-.15l-.668-.287-.116.717c-.483 2.98-1.454 7.202-3.336 10.385a1.79 1.79 0 0 1-1.542.858c-.255 0-.504-.053-.739-.157-.016-.006-.727-.314-1.843-1l-.564-.349-.256.612c-1.057 2.53-3.34 6.285-8.213 9.815l-.047.033-.038.043a1.595 1.595 0 0 1-.464.321 1.83 1.83 0 0 1-.787.177h-.029z" fill="#E1A125" mask="url(#b)"/></g><path d="M76 10.74v-3.3h3.13c5.246 0 7.108 3.637 7.446 8.798l.592 11.677c.168 4.484.676 6.683 5.33 7.445v3.554c-4.654.677-5.162 2.961-5.33 7.445l-.593 11.592c-.338 5.246-2.2 8.8-7.446 8.8H76v-3.3h1.862c4.145 0 4.907-2.708 5.16-7.023l.508-10.576c.17-4.06.847-7.446 5.5-8.715-4.653-1.354-5.33-4.738-5.5-8.714l-.507-10.662c-.254-4.23-1.016-7.022-5.162-7.022H76z" fill="#E1A125"/><g transform="translate(0 7.19)"><mask id="d" fill="#fff"><use xlink:href="#c"/></mask><path d="M14.638 3.55c-4.146 0-4.907 2.791-5.161 7.021l-.508 10.662c-.17 3.976-.846 7.36-5.5 8.714 4.654 1.27 5.33 4.654 5.5 8.715l.508 10.576c.254 4.315 1.015 7.023 5.16 7.023H16.5v3.3h-3.13c-5.246 0-7.107-3.554-7.446-8.8L5.33 39.17c-.17-4.484-.677-6.768-5.331-7.445V28.17c4.654-.762 5.162-2.96 5.33-7.445l.593-11.677C6.262 3.888 8.123.25 13.369.25h3.13v3.3h-1.861z" fill="#E1A125" mask="url(#d)"/></g></g><g transform="translate(0 94)"><path d="M19.084 16.352c0 6.83-2.954 8.08-8.773 8.08h-5.54V4.805h7.234c5.095 0 7.08 2.267 7.08 8.082v3.465zM4.771 28.598h6.233c6.45 0 9.081 2.61 9.081 9.004v4.851c0 6.12-2.397 8.85-7.772 8.85H4.77V28.598zm13.008-2.324c4.03-1.438 5.78-4.713 5.78-10.616v-3.08C23.559 4.323 20.019.64 12.082.64H.298v54.83h12.015c8.012 0 12.247-4.475 12.247-12.94v-4.697c0-6.137-2.28-10.017-6.78-11.559zM33.877 4.806h7.157c5.198 0 7.619 2.788 7.619 8.773v5.082c0 7.114-3.652 8.543-9.544 8.543h-5.232V4.806zm19.25 43.73v-8.393c0-5.84-2.152-9.461-6.566-11.018 4.414-1.603 6.566-5.269 6.566-11.157v-4.697C53.127 4.889 49.084.64 41.11.64H29.404v54.83h4.473v-24.1h5.156c6.833 0 9.62 2.518 9.62 8.696v8.47c0 2.821.203 4.925 1.216 6.699l.135.235h4.826l-.47-.722c-1.086-1.665-1.233-4.075-1.233-6.213z" fill="#FEFEFE"/><path fill="#FEFEFE" d="M59.1252797 55.4696441L81.3089237 55.4696441 81.3089237 51.3026949 63.5998559 51.3026949 63.5998559 29.7529492 78.3062966 29.7529492 78.3062966 25.586 63.5998559 25.586 63.5998559 4.80532203 81.3089237 4.80532203 81.3089237 0.640237288 59.1252797 0.640237288z"/><path fill="#FEFEFE" d="M116.654254 47.0670424L109.50239 0.870771186 104.932729 0.870771186 97.4713729 47.3252627 89.8515424 1.03017797 89.7881525 0.639584746 85.3797627 0.639584746 94.1676441 55.0774661 94.2301017 55.4699237 99.9482373 55.4699237 107.09078 13.7053475 113.942475 55.4699237 119.35578 55.4699237 128.042983 1.17933051 128.128746 0.639584746 124.027051 0.639584746z"/><path d="M151.373 16.352c0 6.83-2.955 8.08-8.774 8.08h-5.539V4.805h7.233c5.096 0 7.08 2.267 7.08 8.082v3.465zM137.06 28.598h6.233c6.45 0 9.08 2.61 9.08 9.004v4.851c0 6.12-2.396 8.85-7.771 8.85h-7.542V28.598zm13.008-2.324c4.03-1.438 5.779-4.713 5.779-10.616v-3.08c0-8.255-3.54-11.938-11.476-11.938h-11.785v54.83h12.016c8.011 0 12.246-4.475 12.246-12.94v-4.697c0-6.137-2.28-10.017-6.78-11.559zm23.64 25.491c-6.425 0-7.773-5.273-7.773-9.696V14.04c0-4.423 1.348-9.697 7.773-9.697 6.55 0 7.927 5.274 7.927 9.697v28.028c0 4.423-1.376 9.696-7.927 9.696m0-51.587c-7.783 0-12.246 5.138-12.246 14.094v27.565c0 8.957 4.463 14.094 12.246 14.094 7.88 0 12.4-5.137 12.4-14.094V14.272c0-8.956-4.52-14.094-12.4-14.094" fill="#FEFEFE"/><g transform="translate(188.305 .177)"><mask id="f" fill="#fff"><use xlink:href="#e"/></mask><path fill="#FEFEFE" mask="url(#f)" d="M18.8675169 26.877661L30.3895508 0.462745763 25.985822 0.462745763 16.0513305 22.9474915 6.19048305 0.462745763 1.47819492 0.462745763 13.0002288 26.8767288 0.631754237 55.2921525 5.11285593 55.2921525 15.7409068 30.892661 26.3698898 55.2921525 31.1567542 55.2921525z"/></g></g></g></svg>